<?xml version="1.0" encoding="iso-8859-1"?>
<!-- Generator: Adobe Illustrator 19.0.0, SVG Export Plug-In . SVG Version: 6.00 Build 0)  -->
<svg version="1.1" id="Layer_1" xmlns="http://www.w3.org/2000/svg" xmlns:xlink="http://www.w3.org/1999/xlink" x="0px" y="0px"
	 viewBox="0 0 489.45 489.45" style="enable-background:new 0 0 489.45 489.45;" xml:space="preserve">
<g>
	<g>
		<path fill='#061161' d="M481.663,184.65l-223.7-180c-8.3-6.2-18.7-6.2-26,0l-223.7,180c-18.5,18.4-0.1,38.3,12.5,36.4h34.3v247.6
			c0,11.4,9.4,20.8,20.8,20.8h337.1c10.4,0,19.8-9.4,19.8-19.8v-248.6h35.4C495.363,219.55,491.463,191.55,481.663,184.65z
			 M244.463,47.35l166.5,133.2h-333L244.463,47.35z M392.163,448.95h-295.4v-227.9h295.5v227.9H392.163z"/>
		<polygon fill='#061161' points="229.863,409.35 257.963,409.35 257.963,349.05 318.263,349.05 318.263,318.85 257.963,318.85 257.963,259.55 
			229.863,259.55 229.863,318.85 169.563,318.85 169.563,349.05 229.863,349.05 		"/>
	</g>
</g>
<g>
</g>
<g>
</g>
<g>
</g>
<g>
</g>
<g>
</g>
<g>
</g>
<g>
</g>
<g>
</g>
<g>
</g>
<g>
</g>
<g>
</g>
<g>
</g>
<g>
</g>
<g>
</g>
<g>
</g>
</svg>
