<?xml version="1.0" encoding="iso-8859-1"?>
<!-- Generator: Adobe Illustrator 19.0.0, SVG Export Plug-In . SVG Version: 6.00 Build 0)  -->
<svg version="1.1" id="Layer_1" xmlns="http://www.w3.org/2000/svg" xmlns:xlink="http://www.w3.org/1999/xlink" x="0px" y="0px"
	 viewBox="0 0 512.012 512.012" style="enable-background:new 0 0 512.012 512.012;" xml:space="preserve">
<g>
	<g>
		<path fill='#061161' d="M505.195,146.453L365.559,6.816c-9.089-9.089-23.824-9.089-32.913,0c-9.089,9.089-9.089,23.824,0,32.913l20.45,20.45
			L303.05,110.24l-16.465-16.465c-9.089-9.089-23.824-9.089-32.913,0c-9.089,9.089-9.089,23.824,0,32.913l16.456,16.456
			L56.205,357.088c-9.088,9.089-9.087,23.824,0.001,32.912l16.447,16.447L6.816,472.283c-9.089,9.089-9.089,23.824,0,32.913
			s23.824,9.089,32.913,0l65.836-65.836l16.456,16.456c9.088,9.088,23.823,9.089,32.912,0.001l213.945-213.923l16.449,16.449
			c9.089,9.089,23.824,9.089,32.913,0c9.089-9.089,9.089-23.824,0-32.913l-16.458-16.458l50.061-50.046l20.44,20.44
			c9.089,9.089,23.824,9.089,32.913,0C514.284,170.277,514.284,155.541,505.195,146.453z M138.478,406.447l-16.456-16.456
			c0,0,0,0-0.001-0.001s0,0-0.001-0.001l-16.447-16.447L303.04,176.057l32.924,32.924L138.478,406.447z M374.717,170.212
			l-32.908-32.908l43.287-43.301l32.921,32.921L374.717,170.212z"/>
	</g>
</g>
<g>
</g>
<g>
</g>
<g>
</g>
<g>
</g>
<g>
</g>
<g>
</g>
<g>
</g>
<g>
</g>
<g>
</g>
<g>
</g>
<g>
</g>
<g>
</g>
<g>
</g>
<g>
</g>
<g>
</g>
</svg>
